<svg width="175" height="48" viewBox="0 0 175 48" fill="none" xmlns="http://www.w3.org/2000/svg">
<g clip-path="url(#clip0_110290_862)">
<path fill-rule="evenodd" clip-rule="evenodd" d="M14.1663 8.86947C12.7856 8.86947 11.6663 9.98875 11.6663 11.3695V36.6299C11.6663 38.0106 12.7856 39.1299 14.1663 39.1299H25.833C27.2137 39.1299 28.333 38.0106 28.333 36.6299V11.3695C28.333 9.98875 27.2137 8.86947 25.833 8.86947H25.694L25.2881 9.84355C25.0293 10.4646 24.4225 10.8691 23.7497 10.8691H16.2497C15.5769 10.8691 14.9701 10.4646 14.7113 9.84355L14.3053 8.86947H14.1663ZM8.33301 11.3695C8.33301 8.1478 10.9447 5.53613 14.1663 5.53613H25.833C29.0547 5.53613 31.6663 8.1478 31.6663 11.3695V36.6299C31.6663 39.8515 29.0547 42.4632 25.833 42.4632H14.1663C10.9447 42.4632 8.33301 39.8515 8.33301 36.6299V11.3695Z" fill="#FF5A30"/>
<g clip-path="url(#clip1_110290_862)">
<path d="M57.544 16.196C55.9667 16.196 54.7627 15.7573 53.932 14.88C53.1107 14.0027 52.7 12.7567 52.7 11.142C52.7 10.3393 52.826 9.62533 53.078 9C53.33 8.36533 53.6753 7.83333 54.114 7.404C54.5527 6.96533 55.0753 6.634 55.682 6.41C56.2887 6.186 56.9467 6.074 57.656 6.074C58.0667 6.074 58.44 6.10667 58.776 6.172C59.112 6.228 59.406 6.298 59.658 6.382C59.91 6.45667 60.12 6.536 60.288 6.62C60.456 6.704 60.5773 6.76933 60.652 6.816L60.022 8.58C59.7233 8.42133 59.3733 8.286 58.972 8.174C58.58 8.062 58.132 8.006 57.628 8.006C57.292 8.006 56.9607 8.062 56.634 8.174C56.3167 8.286 56.032 8.468 55.78 8.72C55.5373 8.96267 55.3413 9.28 55.192 9.672C55.0427 10.064 54.968 10.54 54.968 11.1C54.968 11.548 55.0147 11.968 55.108 12.36C55.2107 12.7427 55.3693 13.074 55.584 13.354C55.808 13.634 56.0973 13.858 56.452 14.026C56.8067 14.1847 57.236 14.264 57.74 14.264C58.0573 14.264 58.342 14.2453 58.594 14.208C58.846 14.1707 59.07 14.1287 59.266 14.082C59.462 14.026 59.6347 13.9653 59.784 13.9C59.9333 13.8347 60.0687 13.774 60.19 13.718L60.792 15.468C60.484 15.6547 60.05 15.8227 59.49 15.972C58.93 16.1213 58.2813 16.196 57.544 16.196ZM65.0088 14.544C65.2142 14.544 65.4102 14.5393 65.5968 14.53C65.7835 14.5207 65.9328 14.5067 66.0448 14.488V12.906C65.9608 12.8873 65.8348 12.8687 65.6668 12.85C65.4988 12.8313 65.3448 12.822 65.2048 12.822C65.0088 12.822 64.8222 12.836 64.6448 12.864C64.4768 12.8827 64.3275 12.9247 64.1968 12.99C64.0662 13.0553 63.9635 13.144 63.8888 13.256C63.8142 13.368 63.7768 13.508 63.7768 13.676C63.7768 14.0027 63.8842 14.2313 64.0988 14.362C64.3228 14.4833 64.6262 14.544 65.0088 14.544ZM64.8408 8.44C65.4568 8.44 65.9702 8.51 66.3808 8.65C66.7915 8.79 67.1182 8.99067 67.3608 9.252C67.6128 9.51333 67.7902 9.83067 67.8928 10.204C67.9955 10.5773 68.0468 10.9927 68.0468 11.45V15.79C67.7482 15.8553 67.3328 15.93 66.8008 16.014C66.2688 16.1073 65.6248 16.154 64.8688 16.154C64.3928 16.154 63.9588 16.112 63.5668 16.028C63.1842 15.944 62.8528 15.8087 62.5728 15.622C62.2928 15.426 62.0782 15.174 61.9288 14.866C61.7795 14.558 61.7048 14.18 61.7048 13.732C61.7048 13.3027 61.7888 12.9387 61.9568 12.64C62.1342 12.3413 62.3675 12.1033 62.6568 11.926C62.9462 11.7487 63.2775 11.6227 63.6508 11.548C64.0242 11.464 64.4115 11.422 64.8128 11.422C65.0835 11.422 65.3215 11.436 65.5268 11.464C65.7415 11.4827 65.9142 11.5107 66.0448 11.548V11.352C66.0448 10.9973 65.9375 10.7127 65.7228 10.498C65.5082 10.2833 65.1348 10.176 64.6028 10.176C64.2482 10.176 63.8982 10.204 63.5528 10.26C63.2075 10.3067 62.9088 10.3767 62.6568 10.47L62.3908 8.79C62.5122 8.75267 62.6615 8.71533 62.8388 8.678C63.0255 8.63133 63.2262 8.594 63.4408 8.566C63.6555 8.52867 63.8795 8.50067 64.1128 8.482C64.3555 8.454 64.5982 8.44 64.8408 8.44ZM72.8731 16.14C72.2665 16.1307 71.7718 16.0653 71.3891 15.944C71.0158 15.8227 70.7171 15.6547 70.4931 15.44C70.2785 15.216 70.1291 14.95 70.0451 14.642C69.9705 14.3247 69.9331 13.97 69.9331 13.578V5.472L72.0191 5.136V13.158C72.0191 13.3447 72.0331 13.5127 72.0611 13.662C72.0891 13.8113 72.1405 13.9373 72.2151 14.04C72.2991 14.1427 72.4158 14.2267 72.5651 14.292C72.7145 14.3573 72.9151 14.3993 73.1671 14.418L72.8731 16.14ZM77.3028 16.14C76.6961 16.1307 76.2015 16.0653 75.8188 15.944C75.4455 15.8227 75.1468 15.6547 74.9228 15.44C74.7081 15.216 74.5588 14.95 74.4748 14.642C74.4001 14.3247 74.3628 13.97 74.3628 13.578V5.472L76.4488 5.136V13.158C76.4488 13.3447 76.4628 13.5127 76.4908 13.662C76.5188 13.8113 76.5701 13.9373 76.6448 14.04C76.7288 14.1427 76.8455 14.2267 76.9948 14.292C77.1441 14.3573 77.3448 14.3993 77.5968 14.418L77.3028 16.14ZM88.4418 15.748C88.0871 15.8507 87.6298 15.944 87.0698 16.028C86.5098 16.1213 85.9218 16.168 85.3058 16.168C84.6804 16.168 84.1578 16.084 83.7378 15.916C83.3271 15.748 83.0004 15.5147 82.7578 15.216C82.5151 14.908 82.3424 14.544 82.2398 14.124C82.1371 13.704 82.0858 13.242 82.0858 12.738V8.636H84.1718V12.486C84.1718 13.158 84.2604 13.6433 84.4378 13.942C84.6151 14.2407 84.9464 14.39 85.4318 14.39C85.5811 14.39 85.7398 14.3853 85.9078 14.376C86.0758 14.3573 86.2251 14.3387 86.3558 14.32V8.636H88.4418V15.748ZM92.5139 14.502C92.8966 14.502 93.1673 14.4647 93.3259 14.39C93.4846 14.3153 93.5639 14.1707 93.5639 13.956C93.5639 13.788 93.4613 13.6433 93.2559 13.522C93.0506 13.3913 92.7379 13.2467 92.3179 13.088C91.9913 12.9667 91.6926 12.8407 91.4219 12.71C91.1606 12.5793 90.9366 12.4253 90.7499 12.248C90.5633 12.0613 90.4186 11.842 90.3159 11.59C90.2133 11.338 90.1619 11.0347 90.1619 10.68C90.1619 9.98933 90.4186 9.44333 90.9319 9.042C91.4453 8.64067 92.1499 8.44 93.0459 8.44C93.4939 8.44 93.9233 8.482 94.3339 8.566C94.7446 8.64067 95.0713 8.72467 95.3139 8.818L94.9499 10.442C94.7073 10.358 94.4413 10.2833 94.1519 10.218C93.8719 10.1527 93.5546 10.12 93.1999 10.12C92.5466 10.12 92.2199 10.302 92.2199 10.666C92.2199 10.75 92.2339 10.8247 92.2619 10.89C92.2899 10.9553 92.3459 11.0207 92.4299 11.086C92.5139 11.142 92.6259 11.2073 92.7659 11.282C92.9153 11.3473 93.1019 11.422 93.3259 11.506C93.7833 11.674 94.1613 11.842 94.4599 12.01C94.7586 12.1687 94.9919 12.346 95.1599 12.542C95.3373 12.7287 95.4586 12.9387 95.5239 13.172C95.5986 13.4053 95.6359 13.676 95.6359 13.984C95.6359 14.712 95.3606 15.2627 94.8099 15.636C94.2686 16.0093 93.4986 16.196 92.4999 16.196C91.8466 16.196 91.3006 16.14 90.8619 16.028C90.4326 15.916 90.1339 15.8227 89.9659 15.748L90.3159 14.054C90.6706 14.194 91.0346 14.306 91.4079 14.39C91.7813 14.4647 92.1499 14.502 92.5139 14.502Z" fill="#424551"/>
<path d="M55.078 35.618C55.078 37.154 55.3 38.576 55.744 39.884C56.188 41.192 56.842 42.404 57.706 43.52L56.518 44.33C55.582 43.19 54.826 41.882 54.25 40.406C53.686 38.918 53.404 37.322 53.404 35.618C53.404 33.914 53.686 32.324 54.25 30.848C54.826 29.36 55.582 28.046 56.518 26.906L57.706 27.716C56.842 28.832 56.188 30.044 55.744 31.352C55.3 32.66 55.078 34.082 55.078 35.618ZM58.5559 36.68C58.7839 36.152 59.0959 35.54 59.4919 34.844C59.8879 34.136 60.3319 33.41 60.8239 32.666C61.3279 31.922 61.8619 31.19 62.4259 30.47C63.0019 29.75 63.5779 29.102 64.1539 28.526H65.7559V36.446H67.2319V37.814H65.7559V41H64.1359V37.814H58.5559V36.68ZM64.1359 30.506C63.7759 30.89 63.4099 31.322 63.0379 31.802C62.6779 32.27 62.3239 32.762 61.9759 33.278C61.6279 33.794 61.2979 34.322 60.9859 34.862C60.6859 35.402 60.4159 35.93 60.1759 36.446H64.1359V30.506ZM68.8961 34.754C68.8961 32.666 69.2621 31.058 69.9941 29.93C70.7381 28.802 71.7641 28.238 73.0721 28.238C74.3801 28.238 75.4001 28.802 76.1321 29.93C76.8761 31.058 77.2481 32.666 77.2481 34.754C77.2481 36.842 76.8761 38.45 76.1321 39.578C75.4001 40.706 74.3801 41.27 73.0721 41.27C71.7641 41.27 70.7381 40.706 69.9941 39.578C69.2621 38.45 68.8961 36.842 68.8961 34.754ZM75.4841 34.754C75.4841 34.07 75.4421 33.422 75.3581 32.81C75.2861 32.198 75.1541 31.664 74.9621 31.208C74.7821 30.752 74.5361 30.392 74.2241 30.128C73.9121 29.852 73.5281 29.714 73.0721 29.714C72.6161 29.714 72.2321 29.852 71.9201 30.128C71.6081 30.392 71.3561 30.752 71.1641 31.208C70.9841 31.664 70.8521 32.198 70.7681 32.81C70.6961 33.422 70.6601 34.07 70.6601 34.754C70.6601 35.438 70.6961 36.086 70.7681 36.698C70.8521 37.31 70.9841 37.844 71.1641 38.3C71.3561 38.756 71.6081 39.122 71.9201 39.398C72.2321 39.662 72.6161 39.794 73.0721 39.794C73.5281 39.794 73.9121 39.662 74.2241 39.398C74.5361 39.122 74.7821 38.756 74.9621 38.3C75.1541 37.844 75.2861 37.31 75.3581 36.698C75.4421 36.086 75.4841 35.438 75.4841 34.754ZM81.7383 33.332C83.5503 33.404 84.8763 33.8 85.7163 34.52C86.5683 35.24 86.9943 36.218 86.9943 37.454C86.9943 38.006 86.8983 38.516 86.7063 38.984C86.5263 39.452 86.2443 39.854 85.8603 40.19C85.4883 40.526 85.0143 40.79 84.4383 40.982C83.8623 41.174 83.1783 41.27 82.3863 41.27C82.0743 41.27 81.7563 41.246 81.4323 41.198C81.1083 41.15 80.8083 41.09 80.5322 41.018C80.2563 40.946 80.0103 40.874 79.7943 40.802C79.5783 40.73 79.4223 40.67 79.3263 40.622L79.6503 39.164C79.8543 39.26 80.1843 39.386 80.6403 39.542C81.1083 39.698 81.6783 39.776 82.3503 39.776C82.8903 39.776 83.3403 39.716 83.7003 39.596C84.0723 39.476 84.3723 39.314 84.6003 39.11C84.8283 38.906 84.9903 38.672 85.0863 38.408C85.1943 38.132 85.2483 37.844 85.2483 37.544C85.2483 37.088 85.1703 36.686 85.0143 36.338C84.8583 35.978 84.5823 35.678 84.1863 35.438C83.7903 35.198 83.2623 35.018 82.6023 34.898C81.9423 34.766 81.1083 34.7 80.1003 34.7C80.1723 34.112 80.2263 33.56 80.2623 33.044C80.3103 32.528 80.3523 32.024 80.3883 31.532C80.4243 31.04 80.4543 30.554 80.4783 30.074C80.5023 29.582 80.5263 29.066 80.5503 28.526H86.5623V29.948H82.0083C81.9963 30.128 81.9783 30.374 81.9543 30.686C81.9303 30.986 81.9063 31.304 81.8823 31.64C81.8583 31.964 81.8343 32.282 81.8103 32.594C81.7863 32.906 81.7623 33.152 81.7383 33.332ZM91.0704 35.618C91.0704 34.082 90.8484 32.66 90.4044 31.352C89.9604 30.044 89.3064 28.832 88.4424 27.716L89.6304 26.906C90.5664 28.046 91.3164 29.36 91.8804 30.848C92.4564 32.324 92.7444 33.914 92.7444 35.618C92.7444 37.322 92.4564 38.918 91.8804 40.406C91.3164 41.882 90.5664 43.19 89.6304 44.33L88.4424 43.52C89.3064 42.404 89.9604 41.192 90.4044 39.884C90.8484 38.576 91.0704 37.154 91.0704 35.618ZM101.9 33.332C103.712 33.404 105.038 33.8 105.878 34.52C106.73 35.24 107.156 36.218 107.156 37.454C107.156 38.006 107.06 38.516 106.868 38.984C106.688 39.452 106.406 39.854 106.022 40.19C105.65 40.526 105.176 40.79 104.6 40.982C104.024 41.174 103.34 41.27 102.548 41.27C102.236 41.27 101.918 41.246 101.594 41.198C101.27 41.15 100.97 41.09 100.694 41.018C100.418 40.946 100.172 40.874 99.9564 40.802C99.7404 40.73 99.5844 40.67 99.4884 40.622L99.8124 39.164C100.016 39.26 100.346 39.386 100.802 39.542C101.27 39.698 101.84 39.776 102.512 39.776C103.052 39.776 103.502 39.716 103.862 39.596C104.234 39.476 104.534 39.314 104.762 39.11C104.99 38.906 105.152 38.672 105.248 38.408C105.356 38.132 105.41 37.844 105.41 37.544C105.41 37.088 105.332 36.686 105.176 36.338C105.02 35.978 104.744 35.678 104.348 35.438C103.952 35.198 103.424 35.018 102.764 34.898C102.104 34.766 101.27 34.7 100.262 34.7C100.334 34.112 100.388 33.56 100.424 33.044C100.472 32.528 100.514 32.024 100.55 31.532C100.586 31.04 100.616 30.554 100.64 30.074C100.664 29.582 100.688 29.066 100.712 28.526H106.724V29.948H102.17C102.158 30.128 102.14 30.374 102.116 30.686C102.092 30.986 102.068 31.304 102.044 31.64C102.02 31.964 101.996 32.282 101.972 32.594C101.948 32.906 101.924 33.152 101.9 33.332ZM112.061 33.332C113.873 33.404 115.199 33.8 116.039 34.52C116.891 35.24 117.317 36.218 117.317 37.454C117.317 38.006 117.221 38.516 117.029 38.984C116.849 39.452 116.567 39.854 116.183 40.19C115.811 40.526 115.337 40.79 114.761 40.982C114.185 41.174 113.501 41.27 112.709 41.27C112.397 41.27 112.079 41.246 111.755 41.198C111.431 41.15 111.131 41.09 110.855 41.018C110.579 40.946 110.333 40.874 110.117 40.802C109.901 40.73 109.745 40.67 109.649 40.622L109.973 39.164C110.177 39.26 110.507 39.386 110.963 39.542C111.431 39.698 112.001 39.776 112.673 39.776C113.213 39.776 113.663 39.716 114.023 39.596C114.395 39.476 114.695 39.314 114.923 39.11C115.151 38.906 115.313 38.672 115.409 38.408C115.517 38.132 115.571 37.844 115.571 37.544C115.571 37.088 115.493 36.686 115.337 36.338C115.181 35.978 114.905 35.678 114.509 35.438C114.113 35.198 113.585 35.018 112.925 34.898C112.265 34.766 111.431 34.7 110.423 34.7C110.495 34.112 110.549 33.56 110.585 33.044C110.633 32.528 110.675 32.024 110.711 31.532C110.747 31.04 110.777 30.554 110.801 30.074C110.825 29.582 110.849 29.066 110.873 28.526H116.885V29.948H112.331C112.319 30.128 112.301 30.374 112.277 30.686C112.253 30.986 112.229 31.304 112.205 31.64C112.181 31.964 112.157 32.282 112.133 32.594C112.109 32.906 112.085 33.152 112.061 33.332ZM122.221 33.332C124.033 33.404 125.359 33.8 126.199 34.52C127.051 35.24 127.477 36.218 127.477 37.454C127.477 38.006 127.381 38.516 127.189 38.984C127.009 39.452 126.727 39.854 126.343 40.19C125.971 40.526 125.497 40.79 124.921 40.982C124.345 41.174 123.661 41.27 122.869 41.27C122.557 41.27 122.239 41.246 121.915 41.198C121.591 41.15 121.291 41.09 121.015 41.018C120.739 40.946 120.493 40.874 120.277 40.802C120.061 40.73 119.905 40.67 119.809 40.622L120.133 39.164C120.337 39.26 120.667 39.386 121.123 39.542C121.591 39.698 122.161 39.776 122.833 39.776C123.373 39.776 123.823 39.716 124.183 39.596C124.555 39.476 124.855 39.314 125.083 39.11C125.311 38.906 125.473 38.672 125.569 38.408C125.677 38.132 125.731 37.844 125.731 37.544C125.731 37.088 125.653 36.686 125.497 36.338C125.341 35.978 125.065 35.678 124.669 35.438C124.273 35.198 123.745 35.018 123.085 34.898C122.425 34.766 121.591 34.7 120.583 34.7C120.655 34.112 120.709 33.56 120.745 33.044C120.793 32.528 120.835 32.024 120.871 31.532C120.907 31.04 120.937 30.554 120.961 30.074C120.985 29.582 121.009 29.066 121.033 28.526H127.045V29.948H122.491C122.479 30.128 122.461 30.374 122.437 30.686C122.413 30.986 122.389 31.304 122.365 31.64C122.341 31.964 122.317 32.282 122.293 32.594C122.269 32.906 122.245 33.152 122.221 33.332ZM129.267 34.826H133.713V36.392H129.267V34.826ZM135.078 34.754C135.078 32.666 135.444 31.058 136.176 29.93C136.92 28.802 137.946 28.238 139.254 28.238C140.562 28.238 141.582 28.802 142.314 29.93C143.058 31.058 143.43 32.666 143.43 34.754C143.43 36.842 143.058 38.45 142.314 39.578C141.582 40.706 140.562 41.27 139.254 41.27C137.946 41.27 136.92 40.706 136.176 39.578C135.444 38.45 135.078 36.842 135.078 34.754ZM141.666 34.754C141.666 34.07 141.624 33.422 141.54 32.81C141.468 32.198 141.336 31.664 141.144 31.208C140.964 30.752 140.718 30.392 140.406 30.128C140.094 29.852 139.71 29.714 139.254 29.714C138.798 29.714 138.414 29.852 138.102 30.128C137.79 30.392 137.538 30.752 137.346 31.208C137.166 31.664 137.034 32.198 136.95 32.81C136.878 33.422 136.842 34.07 136.842 34.754C136.842 35.438 136.878 36.086 136.95 36.698C137.034 37.31 137.166 37.844 137.346 38.3C137.538 38.756 137.79 39.122 138.102 39.398C138.414 39.662 138.798 39.794 139.254 39.794C139.71 39.794 140.094 39.662 140.406 39.398C140.718 39.122 140.964 38.756 141.144 38.3C141.336 37.844 141.468 37.31 141.54 36.698C141.624 36.086 141.666 35.438 141.666 34.754ZM146.012 31.1C146.696 30.836 147.362 30.5 148.01 30.092C148.658 29.672 149.252 29.15 149.792 28.526H150.98V41H149.306V30.848C149.162 30.98 148.982 31.118 148.766 31.262C148.562 31.406 148.334 31.544 148.082 31.676C147.842 31.808 147.584 31.934 147.308 32.054C147.044 32.174 146.786 32.276 146.534 32.36L146.012 31.1ZM162.904 31.712C162.904 32.144 162.814 32.564 162.634 32.972C162.466 33.368 162.238 33.764 161.95 34.16C161.662 34.544 161.338 34.928 160.978 35.312C160.618 35.684 160.258 36.05 159.898 36.41C159.694 36.614 159.454 36.854 159.178 37.13C158.914 37.406 158.662 37.694 158.422 37.994C158.182 38.294 157.978 38.582 157.81 38.858C157.654 39.134 157.576 39.374 157.576 39.578H163.318V41H155.758C155.746 40.928 155.74 40.856 155.74 40.784C155.74 40.712 155.74 40.646 155.74 40.586C155.74 40.022 155.83 39.5 156.01 39.02C156.202 38.528 156.448 38.066 156.748 37.634C157.048 37.202 157.384 36.794 157.756 36.41C158.128 36.026 158.494 35.654 158.854 35.294C159.154 35.006 159.436 34.724 159.7 34.448C159.976 34.16 160.216 33.878 160.42 33.602C160.636 33.314 160.804 33.02 160.924 32.72C161.056 32.42 161.122 32.102 161.122 31.766C161.122 31.406 161.062 31.1 160.942 30.848C160.834 30.596 160.684 30.386 160.492 30.218C160.3 30.05 160.072 29.93 159.808 29.858C159.556 29.774 159.286 29.732 158.998 29.732C158.65 29.732 158.332 29.78 158.044 29.876C157.756 29.972 157.498 30.086 157.27 30.218C157.042 30.338 156.85 30.47 156.694 30.614C156.538 30.746 156.418 30.848 156.334 30.92L155.506 29.732C155.614 29.612 155.776 29.468 155.992 29.3C156.208 29.12 156.466 28.952 156.766 28.796C157.066 28.64 157.402 28.508 157.774 28.4C158.146 28.292 158.548 28.238 158.98 28.238C160.288 28.238 161.266 28.544 161.914 29.156C162.574 29.756 162.904 30.608 162.904 31.712ZM173.82 37.76C173.82 38.264 173.73 38.732 173.55 39.164C173.382 39.584 173.124 39.956 172.776 40.28C172.44 40.592 172.014 40.832 171.498 41C170.982 41.18 170.388 41.27 169.716 41.27C168.936 41.27 168.282 41.162 167.754 40.946C167.238 40.718 166.824 40.436 166.512 40.1C166.2 39.764 165.978 39.398 165.846 39.002C165.714 38.594 165.648 38.21 165.648 37.85C165.648 37.502 165.702 37.172 165.81 36.86C165.93 36.536 166.08 36.236 166.26 35.96C166.452 35.684 166.668 35.438 166.908 35.222C167.16 34.994 167.424 34.796 167.7 34.628C166.524 33.956 165.936 32.966 165.936 31.658C165.936 31.202 166.026 30.77 166.206 30.362C166.386 29.942 166.638 29.576 166.962 29.264C167.298 28.952 167.7 28.706 168.168 28.526C168.636 28.334 169.158 28.238 169.734 28.238C170.406 28.238 170.982 28.34 171.462 28.544C171.942 28.748 172.332 29.012 172.632 29.336C172.944 29.648 173.166 29.996 173.298 30.38C173.442 30.764 173.514 31.136 173.514 31.496C173.514 31.844 173.46 32.174 173.352 32.486C173.256 32.786 173.118 33.068 172.938 33.332C172.77 33.596 172.572 33.83 172.344 34.034C172.128 34.238 171.9 34.418 171.66 34.574C173.076 35.246 173.796 36.308 173.82 37.76ZM167.34 37.868C167.34 38.084 167.376 38.312 167.448 38.552C167.532 38.78 167.67 38.996 167.862 39.2C168.054 39.392 168.3 39.554 168.6 39.686C168.9 39.818 169.278 39.884 169.734 39.884C170.142 39.884 170.496 39.824 170.796 39.704C171.108 39.584 171.36 39.434 171.552 39.254C171.744 39.062 171.888 38.846 171.984 38.606C172.08 38.366 172.128 38.12 172.128 37.868C172.128 37.484 172.056 37.148 171.912 36.86C171.768 36.572 171.558 36.32 171.282 36.104C171.018 35.888 170.694 35.708 170.31 35.564C169.938 35.408 169.512 35.276 169.032 35.168C168.492 35.468 168.072 35.84 167.772 36.284C167.484 36.728 167.34 37.256 167.34 37.868ZM171.84 31.478C171.84 31.298 171.798 31.1 171.714 30.884C171.642 30.668 171.522 30.47 171.354 30.29C171.186 30.098 170.97 29.942 170.706 29.822C170.442 29.69 170.118 29.624 169.734 29.624C169.35 29.624 169.02 29.684 168.744 29.804C168.48 29.924 168.264 30.08 168.096 30.272C167.928 30.452 167.802 30.656 167.718 30.884C167.646 31.1 167.61 31.316 167.61 31.532C167.61 31.796 167.658 32.06 167.754 32.324C167.85 32.588 168 32.834 168.204 33.062C168.408 33.29 168.672 33.494 168.996 33.674C169.332 33.854 169.728 33.998 170.184 34.106C170.688 33.806 171.09 33.458 171.39 33.062C171.69 32.654 171.84 32.126 171.84 31.478Z" fill="#1E212C"/>
</g>
</g>
<defs>
<clipPath id="clip0_110290_862">
<rect width="175" height="48" fill="white"/>
</clipPath>
<clipPath id="clip1_110290_862">
<rect width="123" height="48" fill="white" transform="translate(52)"/>
</clipPath>
</defs>
</svg>
