<svg width="210" height="48" viewBox="0 0 210 48" fill="none" xmlns="http://www.w3.org/2000/svg">
<g clip-path="url(#clip0_110290_868)">
<path fill-rule="evenodd" clip-rule="evenodd" d="M36.5387 21.6113C36.3013 23.2559 35.7387 24.8189 34.905 26.2563C34.9675 26.6121 34.9996 26.9719 34.9996 27.3331C34.9996 28.5878 34.636 29.7886 33.9626 30.8796C33.6264 31.4242 33.5399 32.0623 33.5067 32.4839C33.4685 32.9671 33.4814 33.4958 33.5159 34.0037C33.5546 34.5735 33.6246 35.1717 33.7048 35.736C33.0543 35.5463 32.3492 35.3558 31.6763 35.204C31.1166 35.0777 30.5439 34.9701 30.0252 34.9165C29.5727 34.8698 28.9188 34.8336 28.3341 35.0226C27.0556 35.4359 25.6488 35.6665 24.1662 35.6665C22.403 35.6665 20.7837 35.3535 19.3643 34.8098C19.0229 34.8253 18.679 34.8331 18.3328 34.8331C16.3252 34.8331 14.3929 34.5691 12.585 34.0811C15.2132 37.1209 19.546 38.9998 24.1662 38.9998C25.9711 38.9998 27.7034 38.7227 29.2999 38.2135C29.3027 38.2136 29.3078 38.2135 29.3153 38.2133C29.3563 38.2125 29.4701 38.2103 29.6827 38.2322C30.017 38.2667 30.4469 38.3438 30.9428 38.4556C31.9301 38.6783 33.0395 39.007 33.9041 39.2814C35.7377 39.8635 37.5143 38.2634 37.1866 36.4027C37.0456 35.6019 36.899 34.6245 36.8415 33.7778C36.8126 33.3521 36.8094 33.0026 36.8297 32.7462C36.8381 32.6399 36.8488 32.5733 36.8556 32.5379C37.7933 30.9846 38.3329 29.216 38.3329 27.3331C38.3329 25.2105 37.6736 23.2723 36.5387 21.6113Z" fill="#FF5A30"/>
<path fill-rule="evenodd" clip-rule="evenodd" d="M9.32773 13.4966C7.08113 15.2146 5.83266 17.4698 5.83266 19.833C5.83266 21.0114 6.13943 22.1463 6.71496 23.2017C6.93417 23.6037 6.99636 24.0183 7.0186 24.299C7.04285 24.6051 7.03076 24.9197 7.00414 25.2139C6.95085 25.8028 6.82372 26.4701 6.67124 27.1274C6.49287 27.8962 6.26431 28.7162 6.03239 29.486C6.91281 29.166 7.87508 28.8381 8.78733 28.5719C9.52461 28.3568 10.2692 28.1702 10.9318 28.0654C11.5027 27.9751 12.3311 27.8864 13.0443 28.1332C14.6448 28.6869 16.4353 28.9997 18.3327 28.9997C21.9113 28.9997 25.0895 27.8886 27.3376 26.1694C29.5842 24.4514 30.8327 22.1962 30.8327 19.833C30.8327 17.4698 29.5842 15.2146 27.3376 13.4966C25.0895 11.7775 21.9113 10.6663 18.3327 10.6663C14.754 10.6663 11.5759 11.7775 9.32773 13.4966ZM7.30289 10.8488C10.1821 8.64702 14.0872 7.33301 18.3327 7.33301C22.5781 7.33301 26.4832 8.64702 29.3624 10.8488C32.2431 13.0517 34.166 16.2131 34.166 19.833C34.166 23.4529 32.2431 26.6143 29.3624 28.8173C26.4832 31.019 22.5781 32.333 18.3327 32.333C16.0942 32.333 13.9561 31.9681 12.0148 31.3041C12.0128 31.3095 11.8554 31.2941 11.4524 31.3578C10.988 31.4313 10.3952 31.5751 9.72089 31.7719C8.37845 32.1635 6.87087 32.7176 5.72255 33.1645C3.73317 33.9387 1.70658 32.0281 2.37685 29.9929C2.7321 28.9142 3.15108 27.5511 3.42414 26.3741C3.5617 25.7812 3.65096 25.2827 3.68437 24.9135C3.69596 24.7853 3.69896 24.6919 3.69829 24.6288C2.93115 23.1629 2.49932 21.5417 2.49932 19.833C2.49932 16.2131 4.42216 13.0517 7.30289 10.8488ZM3.6928 24.5379C3.69296 24.5377 3.69377 24.5422 3.69475 24.5518C3.69313 24.5429 3.69264 24.5381 3.6928 24.5379Z" fill="#FF5A30"/>
<g clip-path="url(#clip1_110290_868)">
<path d="M60.316 6.298V8.16H57.39V16H55.206V8.16H52.28V6.298H60.316ZM63.3409 14.544C63.5462 14.544 63.7422 14.5393 63.9289 14.53C64.1155 14.5207 64.2649 14.5067 64.3769 14.488V12.906C64.2929 12.8873 64.1669 12.8687 63.9989 12.85C63.8309 12.8313 63.6769 12.822 63.5369 12.822C63.3409 12.822 63.1542 12.836 62.9769 12.864C62.8089 12.8827 62.6595 12.9247 62.5289 12.99C62.3982 13.0553 62.2955 13.144 62.2209 13.256C62.1462 13.368 62.1089 13.508 62.1089 13.676C62.1089 14.0027 62.2162 14.2313 62.4309 14.362C62.6549 14.4833 62.9582 14.544 63.3409 14.544ZM63.1729 8.44C63.7889 8.44 64.3022 8.51 64.7129 8.65C65.1235 8.79 65.4502 8.99067 65.6929 9.252C65.9449 9.51333 66.1222 9.83067 66.2249 10.204C66.3275 10.5773 66.3789 10.9927 66.3789 11.45V15.79C66.0802 15.8553 65.6649 15.93 65.1329 16.014C64.6009 16.1073 63.9569 16.154 63.2009 16.154C62.7249 16.154 62.2909 16.112 61.8989 16.028C61.5162 15.944 61.1849 15.8087 60.9049 15.622C60.6249 15.426 60.4102 15.174 60.2609 14.866C60.1115 14.558 60.0369 14.18 60.0369 13.732C60.0369 13.3027 60.1209 12.9387 60.2889 12.64C60.4662 12.3413 60.6995 12.1033 60.9889 11.926C61.2782 11.7487 61.6095 11.6227 61.9829 11.548C62.3562 11.464 62.7435 11.422 63.1449 11.422C63.4155 11.422 63.6535 11.436 63.8589 11.464C64.0735 11.4827 64.2462 11.5107 64.3769 11.548V11.352C64.3769 10.9973 64.2695 10.7127 64.0549 10.498C63.8402 10.2833 63.4669 10.176 62.9349 10.176C62.5802 10.176 62.2302 10.204 61.8849 10.26C61.5395 10.3067 61.2409 10.3767 60.9889 10.47L60.7229 8.79C60.8442 8.75267 60.9935 8.71533 61.1709 8.678C61.3575 8.63133 61.5582 8.594 61.7729 8.566C61.9875 8.52867 62.2115 8.50067 62.4449 8.482C62.6875 8.454 62.9302 8.44 63.1729 8.44ZM71.2052 16.14C70.5985 16.1307 70.1038 16.0653 69.7212 15.944C69.3478 15.8227 69.0492 15.6547 68.8252 15.44C68.6105 15.216 68.4612 14.95 68.3772 14.642C68.3025 14.3247 68.2652 13.97 68.2652 13.578V5.472L70.3512 5.136V13.158C70.3512 13.3447 70.3652 13.5127 70.3932 13.662C70.4212 13.8113 70.4725 13.9373 70.5472 14.04C70.6312 14.1427 70.7478 14.2267 70.8972 14.292C71.0465 14.3573 71.2472 14.3993 71.4992 14.418L71.2052 16.14ZM74.7808 11.296C74.9862 11.072 75.1962 10.8387 75.4108 10.596C75.6348 10.3533 75.8495 10.1153 76.0548 9.882C76.2602 9.63933 76.4515 9.41067 76.6288 9.196C76.8155 8.98133 76.9742 8.79467 77.1048 8.636H79.5828C79.0882 9.20533 78.6028 9.75133 78.1268 10.274C77.6602 10.7873 77.1468 11.3193 76.5868 11.87C76.8668 12.122 77.1562 12.4253 77.4548 12.78C77.7535 13.1253 78.0428 13.4847 78.3228 13.858C78.6028 14.2313 78.8595 14.6047 79.0928 14.978C79.3262 15.3513 79.5222 15.692 79.6808 16H77.2868C77.1375 15.7573 76.9648 15.4913 76.7688 15.202C76.5822 14.9033 76.3815 14.6093 76.1668 14.32C75.9522 14.0213 75.7235 13.7367 75.4808 13.466C75.2475 13.1953 75.0142 12.9667 74.7808 12.78V16H72.6948V5.472L74.7808 5.136V11.296ZM84.0955 6.802L86.1815 6.466V8.636H88.6875V10.372H86.1815V12.962C86.1815 13.4007 86.2562 13.7507 86.4055 14.012C86.5642 14.2733 86.8769 14.404 87.3435 14.404C87.5675 14.404 87.7962 14.3853 88.0295 14.348C88.2722 14.3013 88.4915 14.2407 88.6875 14.166L88.9815 15.79C88.7295 15.8927 88.4495 15.9813 88.1415 16.056C87.8335 16.1307 87.4555 16.168 87.0075 16.168C86.4382 16.168 85.9669 16.0933 85.5935 15.944C85.2202 15.7853 84.9215 15.5707 84.6975 15.3C84.4735 15.02 84.3149 14.684 84.2215 14.292C84.1375 13.9 84.0955 13.466 84.0955 12.99V6.802ZM97.0008 12.304C97.0008 12.8827 96.9168 13.4147 96.7488 13.9C96.5808 14.376 96.3381 14.7867 96.0208 15.132C95.7035 15.468 95.3208 15.7293 94.8728 15.916C94.4341 16.1027 93.9395 16.196 93.3888 16.196C92.8475 16.196 92.3528 16.1027 91.9048 15.916C91.4661 15.7293 91.0881 15.468 90.7708 15.132C90.4535 14.7867 90.2061 14.376 90.0288 13.9C89.8515 13.4147 89.7628 12.8827 89.7628 12.304C89.7628 11.7253 89.8515 11.198 90.0288 10.722C90.2155 10.246 90.4675 9.84 90.7848 9.504C91.1115 9.168 91.4941 8.90667 91.9328 8.72C92.3808 8.53333 92.8661 8.44 93.3888 8.44C93.9208 8.44 94.4061 8.53333 94.8448 8.72C95.2928 8.90667 95.6755 9.168 95.9928 9.504C96.3101 9.84 96.5575 10.246 96.7348 10.722C96.9121 11.198 97.0008 11.7253 97.0008 12.304ZM94.8728 12.304C94.8728 11.66 94.7421 11.156 94.4808 10.792C94.2288 10.4187 93.8648 10.232 93.3888 10.232C92.9128 10.232 92.5441 10.4187 92.2828 10.792C92.0215 11.156 91.8908 11.66 91.8908 12.304C91.8908 12.948 92.0215 13.4613 92.2828 13.844C92.5441 14.2173 92.9128 14.404 93.3888 14.404C93.8648 14.404 94.2288 14.2173 94.4808 13.844C94.7421 13.4613 94.8728 12.948 94.8728 12.304ZM108.266 15.748C107.911 15.8507 107.454 15.944 106.894 16.028C106.334 16.1213 105.746 16.168 105.13 16.168C104.505 16.168 103.982 16.084 103.562 15.916C103.151 15.748 102.825 15.5147 102.582 15.216C102.339 14.908 102.167 14.544 102.064 14.124C101.961 13.704 101.91 13.242 101.91 12.738V8.636H103.996V12.486C103.996 13.158 104.085 13.6433 104.262 13.942C104.439 14.2407 104.771 14.39 105.256 14.39C105.405 14.39 105.564 14.3853 105.732 14.376C105.9 14.3573 106.049 14.3387 106.18 14.32V8.636H108.266V15.748ZM112.338 14.502C112.721 14.502 112.991 14.4647 113.15 14.39C113.309 14.3153 113.388 14.1707 113.388 13.956C113.388 13.788 113.285 13.6433 113.08 13.522C112.875 13.3913 112.562 13.2467 112.142 13.088C111.815 12.9667 111.517 12.8407 111.246 12.71C110.985 12.5793 110.761 12.4253 110.574 12.248C110.387 12.0613 110.243 11.842 110.14 11.59C110.037 11.338 109.986 11.0347 109.986 10.68C109.986 9.98933 110.243 9.44333 110.756 9.042C111.269 8.64067 111.974 8.44 112.87 8.44C113.318 8.44 113.747 8.482 114.158 8.566C114.569 8.64067 114.895 8.72467 115.138 8.818L114.774 10.442C114.531 10.358 114.265 10.2833 113.976 10.218C113.696 10.1527 113.379 10.12 113.024 10.12C112.371 10.12 112.044 10.302 112.044 10.666C112.044 10.75 112.058 10.8247 112.086 10.89C112.114 10.9553 112.17 11.0207 112.254 11.086C112.338 11.142 112.45 11.2073 112.59 11.282C112.739 11.3473 112.926 11.422 113.15 11.506C113.607 11.674 113.985 11.842 114.284 12.01C114.583 12.1687 114.816 12.346 114.984 12.542C115.161 12.7287 115.283 12.9387 115.348 13.172C115.423 13.4053 115.46 13.676 115.46 13.984C115.46 14.712 115.185 15.2627 114.634 15.636C114.093 16.0093 113.323 16.196 112.324 16.196C111.671 16.196 111.125 16.14 110.686 16.028C110.257 15.916 109.958 15.8227 109.79 15.748L110.14 14.054C110.495 14.194 110.859 14.306 111.232 14.39C111.605 14.4647 111.974 14.502 112.338 14.502Z" fill="#424551"/>
<path d="M53.44 41V27.32L55.114 27.032V31.82C55.426 31.7 55.756 31.61 56.104 31.55C56.464 31.478 56.818 31.442 57.166 31.442C57.91 31.442 58.528 31.55 59.02 31.766C59.512 31.97 59.902 32.264 60.19 32.648C60.49 33.02 60.7 33.47 60.82 33.998C60.94 34.526 61 35.108 61 35.744V41H59.326V36.104C59.326 35.528 59.284 35.036 59.2 34.628C59.128 34.22 59.002 33.89 58.822 33.638C58.642 33.386 58.402 33.206 58.102 33.098C57.802 32.978 57.43 32.918 56.986 32.918C56.806 32.918 56.62 32.93 56.428 32.954C56.236 32.978 56.05 33.008 55.87 33.044C55.702 33.068 55.546 33.098 55.402 33.134C55.27 33.17 55.174 33.2 55.114 33.224V41H53.44ZM63.2012 36.338C63.2012 35.51 63.3212 34.79 63.5612 34.178C63.8012 33.554 64.1192 33.038 64.5152 32.63C64.9112 32.222 65.3672 31.916 65.8832 31.712C66.3992 31.508 66.9272 31.406 67.4672 31.406C68.7272 31.406 69.6932 31.802 70.3652 32.594C71.0372 33.374 71.3732 34.568 71.3732 36.176C71.3732 36.248 71.3732 36.344 71.3732 36.464C71.3732 36.572 71.3672 36.674 71.3552 36.77H64.9472C65.0192 37.742 65.3012 38.48 65.7932 38.984C66.2852 39.488 67.0532 39.74 68.0972 39.74C68.6852 39.74 69.1772 39.692 69.5732 39.596C69.9812 39.488 70.2872 39.386 70.4912 39.29L70.7252 40.694C70.5212 40.802 70.1612 40.916 69.6452 41.036C69.1412 41.156 68.5652 41.216 67.9172 41.216C67.1012 41.216 66.3932 41.096 65.7932 40.856C65.2052 40.604 64.7192 40.262 64.3352 39.83C63.9512 39.398 63.6632 38.888 63.4712 38.3C63.2912 37.7 63.2012 37.046 63.2012 36.338ZM69.6272 35.42C69.6392 34.664 69.4472 34.046 69.0512 33.566C68.6672 33.074 68.1332 32.828 67.4492 32.828C67.0652 32.828 66.7232 32.906 66.4232 33.062C66.1352 33.206 65.8892 33.398 65.6852 33.638C65.4812 33.878 65.3192 34.154 65.1992 34.466C65.0912 34.778 65.0192 35.096 64.9832 35.42H69.6272ZM76.5859 41.18C75.5539 41.156 74.8219 40.934 74.3899 40.514C73.9579 40.094 73.7419 39.44 73.7419 38.552V27.32L75.4159 27.032V38.282C75.4159 38.558 75.4399 38.786 75.4879 38.966C75.5359 39.146 75.6139 39.29 75.7219 39.398C75.8299 39.506 75.9739 39.59 76.1539 39.65C76.3339 39.698 76.5559 39.74 76.8199 39.776L76.5859 41.18ZM81.5078 41.18C80.4758 41.156 79.7438 40.934 79.3118 40.514C78.8798 40.094 78.6638 39.44 78.6638 38.552V27.32L80.3378 27.032V38.282C80.3378 38.558 80.3618 38.786 80.4098 38.966C80.4578 39.146 80.5358 39.29 80.6438 39.398C80.7518 39.506 80.8958 39.59 81.0758 39.65C81.2558 39.698 81.4778 39.74 81.7418 39.776L81.5078 41.18ZM91.8836 36.32C91.8836 37.064 91.7756 37.736 91.5596 38.336C91.3436 38.936 91.0376 39.452 90.6416 39.884C90.2576 40.316 89.7956 40.652 89.2556 40.892C88.7156 41.12 88.1276 41.234 87.4916 41.234C86.8556 41.234 86.2676 41.12 85.7276 40.892C85.1876 40.652 84.7196 40.316 84.3236 39.884C83.9396 39.452 83.6396 38.936 83.4236 38.336C83.2076 37.736 83.0996 37.064 83.0996 36.32C83.0996 35.588 83.2076 34.922 83.4236 34.322C83.6396 33.71 83.9396 33.188 84.3236 32.756C84.7196 32.324 85.1876 31.994 85.7276 31.766C86.2676 31.526 86.8556 31.406 87.4916 31.406C88.1276 31.406 88.7156 31.526 89.2556 31.766C89.7956 31.994 90.2576 32.324 90.6416 32.756C91.0376 33.188 91.3436 33.71 91.5596 34.322C91.7756 34.922 91.8836 35.588 91.8836 36.32ZM90.1376 36.32C90.1376 35.264 89.8976 34.43 89.4176 33.818C88.9496 33.194 88.3076 32.882 87.4916 32.882C86.6756 32.882 86.0276 33.194 85.5476 33.818C85.0796 34.43 84.8456 35.264 84.8456 36.32C84.8456 37.376 85.0796 38.216 85.5476 38.84C86.0276 39.452 86.6756 39.758 87.4916 39.758C88.3076 39.758 88.9496 39.452 89.4176 38.84C89.8976 38.216 90.1376 37.376 90.1376 36.32ZM105.219 40.226C104.835 40.226 104.517 40.172 104.265 40.064C104.013 39.956 103.803 39.812 103.635 39.632C103.371 39.776 103.053 39.902 102.681 40.01C102.309 40.106 101.937 40.154 101.565 40.154C100.989 40.154 100.461 40.064 99.9808 39.884C99.5128 39.704 99.1048 39.44 98.7568 39.092C98.4088 38.732 98.1388 38.294 97.9468 37.778C97.7548 37.262 97.6588 36.662 97.6588 35.978C97.6588 35.402 97.7488 34.862 97.9288 34.358C98.1088 33.842 98.3728 33.398 98.7208 33.026C99.0808 32.642 99.5128 32.342 100.017 32.126C100.533 31.91 101.115 31.802 101.763 31.802C102.375 31.802 102.933 31.85 103.437 31.946C103.953 32.042 104.349 32.138 104.625 32.234V37.742C104.625 38.126 104.691 38.396 104.823 38.552C104.955 38.708 105.129 38.786 105.345 38.786C105.657 38.786 105.927 38.678 106.155 38.462C106.395 38.246 106.587 37.964 106.731 37.616C106.887 37.268 107.001 36.878 107.073 36.446C107.145 36.002 107.181 35.552 107.181 35.096C107.181 34.34 107.049 33.632 106.785 32.972C106.521 32.3 106.143 31.712 105.651 31.208C105.159 30.704 104.559 30.308 103.851 30.02C103.155 29.732 102.369 29.588 101.493 29.588C100.617 29.588 99.8128 29.738 99.0808 30.038C98.3488 30.326 97.7188 30.746 97.1908 31.298C96.6628 31.838 96.2488 32.504 95.9488 33.296C95.6608 34.088 95.5168 34.988 95.5168 35.996C95.5168 37.052 95.6728 37.982 95.9848 38.786C96.2968 39.578 96.7288 40.244 97.2808 40.784C97.8448 41.312 98.5048 41.708 99.2608 41.972C100.029 42.248 100.869 42.386 101.781 42.386C102.489 42.386 103.071 42.344 103.527 42.26C103.995 42.176 104.295 42.11 104.427 42.062L104.607 43.394C104.403 43.466 104.031 43.544 103.491 43.628C102.963 43.712 102.393 43.754 101.781 43.754C100.713 43.754 99.7048 43.598 98.7568 43.286C97.8088 42.986 96.9808 42.518 96.2728 41.882C95.5648 41.258 95.0008 40.46 94.5808 39.488C94.1728 38.504 93.9688 37.34 93.9688 35.996C93.9688 34.7 94.1728 33.566 94.5808 32.594C94.9888 31.622 95.5348 30.818 96.2188 30.182C96.9148 29.534 97.7128 29.048 98.6128 28.724C99.5248 28.4 100.485 28.238 101.493 28.238C102.477 28.238 103.407 28.4 104.283 28.724C105.159 29.036 105.927 29.498 106.587 30.11C107.247 30.71 107.769 31.442 108.153 32.306C108.537 33.158 108.729 34.124 108.729 35.204C108.729 36.02 108.633 36.74 108.441 37.364C108.261 37.988 108.015 38.516 107.703 38.948C107.391 39.368 107.019 39.686 106.587 39.902C106.155 40.118 105.699 40.226 105.219 40.226ZM101.619 38.768C101.871 38.768 102.123 38.744 102.375 38.696C102.639 38.636 102.873 38.552 103.077 38.444C103.041 38.288 103.017 38.132 103.005 37.976C102.993 37.82 102.987 37.67 102.987 37.526V33.296C102.915 33.272 102.777 33.248 102.573 33.224C102.369 33.2 102.141 33.188 101.889 33.188C101.037 33.188 100.401 33.452 99.9808 33.98C99.5608 34.508 99.3508 35.174 99.3508 35.978C99.3508 36.83 99.5548 37.508 99.9628 38.012C100.371 38.516 100.923 38.768 101.619 38.768ZM115.41 41.216C114.654 41.216 113.988 41.096 113.412 40.856C112.848 40.616 112.368 40.28 111.972 39.848C111.588 39.416 111.3 38.906 111.108 38.318C110.916 37.718 110.82 37.058 110.82 36.338C110.82 35.618 110.922 34.958 111.126 34.358C111.342 33.758 111.642 33.242 112.026 32.81C112.41 32.366 112.878 32.024 113.43 31.784C113.994 31.532 114.618 31.406 115.302 31.406C115.722 31.406 116.142 31.442 116.562 31.514C116.982 31.586 117.384 31.7 117.768 31.856L117.39 33.278C117.138 33.158 116.844 33.062 116.508 32.99C116.184 32.918 115.836 32.882 115.464 32.882C114.528 32.882 113.808 33.176 113.304 33.764C112.812 34.352 112.566 35.21 112.566 36.338C112.566 36.842 112.62 37.304 112.728 37.724C112.848 38.144 113.028 38.504 113.268 38.804C113.52 39.104 113.838 39.338 114.222 39.506C114.606 39.662 115.074 39.74 115.626 39.74C116.07 39.74 116.472 39.698 116.832 39.614C117.192 39.53 117.474 39.44 117.678 39.344L117.912 40.748C117.816 40.808 117.678 40.868 117.498 40.928C117.318 40.976 117.114 41.018 116.886 41.054C116.658 41.102 116.412 41.138 116.148 41.162C115.896 41.198 115.65 41.216 115.41 41.216ZM123.166 31.442C123.31 31.442 123.472 31.454 123.652 31.478C123.844 31.49 124.03 31.514 124.21 31.55C124.39 31.574 124.552 31.604 124.696 31.64C124.852 31.664 124.966 31.688 125.038 31.712L124.75 33.17C124.618 33.122 124.396 33.068 124.084 33.008C123.784 32.936 123.394 32.9 122.914 32.9C122.602 32.9 122.29 32.936 121.978 33.008C121.678 33.068 121.48 33.11 121.384 33.134V41H119.71V32.036C120.106 31.892 120.598 31.76 121.186 31.64C121.774 31.508 122.434 31.442 123.166 31.442ZM126.131 36.338C126.131 35.51 126.251 34.79 126.491 34.178C126.731 33.554 127.049 33.038 127.445 32.63C127.841 32.222 128.297 31.916 128.813 31.712C129.329 31.508 129.857 31.406 130.397 31.406C131.657 31.406 132.623 31.802 133.295 32.594C133.967 33.374 134.303 34.568 134.303 36.176C134.303 36.248 134.303 36.344 134.303 36.464C134.303 36.572 134.297 36.674 134.285 36.77H127.877C127.949 37.742 128.231 38.48 128.723 38.984C129.215 39.488 129.983 39.74 131.027 39.74C131.615 39.74 132.107 39.692 132.503 39.596C132.911 39.488 133.217 39.386 133.421 39.29L133.655 40.694C133.451 40.802 133.091 40.916 132.575 41.036C132.071 41.156 131.495 41.216 130.847 41.216C130.031 41.216 129.323 41.096 128.723 40.856C128.135 40.604 127.649 40.262 127.265 39.83C126.881 39.398 126.593 38.888 126.401 38.3C126.221 37.7 126.131 37.046 126.131 36.338ZM132.557 35.42C132.569 34.664 132.377 34.046 131.981 33.566C131.597 33.074 131.063 32.828 130.379 32.828C129.995 32.828 129.653 32.906 129.353 33.062C129.065 33.206 128.819 33.398 128.615 33.638C128.411 33.878 128.249 34.154 128.129 34.466C128.021 34.778 127.949 35.096 127.913 35.42H132.557ZM139.876 39.794C140.272 39.794 140.62 39.788 140.92 39.776C141.232 39.752 141.49 39.716 141.694 39.668V36.878C141.574 36.818 141.376 36.77 141.1 36.734C140.836 36.686 140.512 36.662 140.128 36.662C139.876 36.662 139.606 36.68 139.318 36.716C139.042 36.752 138.784 36.83 138.544 36.95C138.316 37.058 138.124 37.214 137.968 37.418C137.812 37.61 137.734 37.868 137.734 38.192C137.734 38.792 137.926 39.212 138.31 39.452C138.694 39.68 139.216 39.794 139.876 39.794ZM139.732 31.406C140.404 31.406 140.968 31.496 141.424 31.676C141.892 31.844 142.264 32.09 142.54 32.414C142.828 32.726 143.032 33.104 143.152 33.548C143.272 33.98 143.332 34.46 143.332 34.988V40.838C143.188 40.862 142.984 40.898 142.72 40.946C142.468 40.982 142.18 41.018 141.856 41.054C141.532 41.09 141.178 41.12 140.794 41.144C140.422 41.18 140.05 41.198 139.678 41.198C139.15 41.198 138.664 41.144 138.22 41.036C137.776 40.928 137.392 40.76 137.068 40.532C136.744 40.292 136.492 39.98 136.312 39.596C136.132 39.212 136.042 38.75 136.042 38.21C136.042 37.694 136.144 37.25 136.348 36.878C136.564 36.506 136.852 36.206 137.212 35.978C137.572 35.75 137.992 35.582 138.472 35.474C138.952 35.366 139.456 35.312 139.984 35.312C140.152 35.312 140.326 35.324 140.506 35.348C140.686 35.36 140.854 35.384 141.01 35.42C141.178 35.444 141.322 35.468 141.442 35.492C141.562 35.516 141.646 35.534 141.694 35.546V35.078C141.694 34.802 141.664 34.532 141.604 34.268C141.544 33.992 141.436 33.752 141.28 33.548C141.124 33.332 140.908 33.164 140.632 33.044C140.368 32.912 140.02 32.846 139.588 32.846C139.036 32.846 138.55 32.888 138.13 32.972C137.722 33.044 137.416 33.122 137.212 33.206L137.014 31.82C137.23 31.724 137.59 31.634 138.094 31.55C138.598 31.454 139.144 31.406 139.732 31.406ZM147.678 31.64H151.224V33.044H147.678V37.364C147.678 37.832 147.714 38.222 147.786 38.534C147.858 38.834 147.966 39.074 148.11 39.254C148.254 39.422 148.434 39.542 148.65 39.614C148.866 39.686 149.118 39.722 149.406 39.722C149.91 39.722 150.312 39.668 150.612 39.56C150.924 39.44 151.14 39.356 151.26 39.308L151.584 40.694C151.416 40.778 151.122 40.88 150.702 41C150.282 41.132 149.802 41.198 149.262 41.198C148.626 41.198 148.098 41.12 147.678 40.964C147.27 40.796 146.94 40.55 146.688 40.226C146.436 39.902 146.256 39.506 146.148 39.038C146.052 38.558 146.004 38.006 146.004 37.382V29.03L147.678 28.742V31.64ZM152.656 36.338C152.656 35.51 152.776 34.79 153.016 34.178C153.256 33.554 153.574 33.038 153.97 32.63C154.366 32.222 154.822 31.916 155.338 31.712C155.854 31.508 156.382 31.406 156.922 31.406C158.182 31.406 159.148 31.802 159.82 32.594C160.492 33.374 160.828 34.568 160.828 36.176C160.828 36.248 160.828 36.344 160.828 36.464C160.828 36.572 160.822 36.674 160.81 36.77H154.402C154.474 37.742 154.756 38.48 155.248 38.984C155.74 39.488 156.508 39.74 157.552 39.74C158.14 39.74 158.632 39.692 159.028 39.596C159.436 39.488 159.742 39.386 159.946 39.29L160.18 40.694C159.976 40.802 159.616 40.916 159.1 41.036C158.596 41.156 158.02 41.216 157.372 41.216C156.556 41.216 155.848 41.096 155.248 40.856C154.66 40.604 154.174 40.262 153.79 39.83C153.406 39.398 153.118 38.888 152.926 38.3C152.746 37.7 152.656 37.046 152.656 36.338ZM159.082 35.42C159.094 34.664 158.902 34.046 158.506 33.566C158.122 33.074 157.588 32.828 156.904 32.828C156.52 32.828 156.178 32.906 155.878 33.062C155.59 33.206 155.344 33.398 155.14 33.638C154.936 33.878 154.774 34.154 154.654 34.466C154.546 34.778 154.474 35.096 154.438 35.42H159.082ZM168.831 41C168.699 40.736 168.537 40.442 168.345 40.118C168.153 39.794 167.943 39.464 167.715 39.128C167.487 38.78 167.253 38.438 167.013 38.102C166.773 37.766 166.539 37.448 166.311 37.148C166.083 37.448 165.849 37.772 165.609 38.12C165.369 38.456 165.135 38.798 164.907 39.146C164.691 39.482 164.487 39.812 164.295 40.136C164.103 40.46 163.941 40.748 163.809 41H162.081C162.501 40.184 162.999 39.356 163.575 38.516C164.163 37.664 164.745 36.854 165.321 36.086L162.225 31.64H164.115L166.347 34.916L168.597 31.64H170.379L167.355 35.978C167.931 36.758 168.519 37.586 169.119 38.462C169.731 39.326 170.247 40.172 170.667 41H168.831ZM174.406 40.028C174.406 40.352 174.298 40.634 174.082 40.874C173.866 41.114 173.572 41.234 173.2 41.234C172.828 41.234 172.534 41.114 172.318 40.874C172.102 40.634 171.994 40.352 171.994 40.028C171.994 39.704 172.102 39.422 172.318 39.182C172.534 38.942 172.828 38.822 173.2 38.822C173.572 38.822 173.866 38.942 174.082 39.182C174.298 39.422 174.406 39.704 174.406 40.028ZM180.924 41.216C180.168 41.216 179.502 41.096 178.926 40.856C178.362 40.616 177.882 40.28 177.486 39.848C177.102 39.416 176.814 38.906 176.622 38.318C176.43 37.718 176.334 37.058 176.334 36.338C176.334 35.618 176.436 34.958 176.64 34.358C176.856 33.758 177.156 33.242 177.54 32.81C177.924 32.366 178.392 32.024 178.944 31.784C179.508 31.532 180.132 31.406 180.816 31.406C181.236 31.406 181.656 31.442 182.076 31.514C182.496 31.586 182.898 31.7 183.282 31.856L182.904 33.278C182.652 33.158 182.358 33.062 182.022 32.99C181.698 32.918 181.35 32.882 180.978 32.882C180.042 32.882 179.322 33.176 178.818 33.764C178.326 34.352 178.08 35.21 178.08 36.338C178.08 36.842 178.134 37.304 178.242 37.724C178.362 38.144 178.542 38.504 178.782 38.804C179.034 39.104 179.352 39.338 179.736 39.506C180.12 39.662 180.588 39.74 181.14 39.74C181.584 39.74 181.986 39.698 182.346 39.614C182.706 39.53 182.988 39.44 183.192 39.344L183.426 40.748C183.33 40.808 183.192 40.868 183.012 40.928C182.832 40.976 182.628 41.018 182.4 41.054C182.172 41.102 181.926 41.138 181.662 41.162C181.41 41.198 181.164 41.216 180.924 41.216ZM193.257 36.32C193.257 37.064 193.149 37.736 192.933 38.336C192.717 38.936 192.411 39.452 192.015 39.884C191.631 40.316 191.169 40.652 190.629 40.892C190.089 41.12 189.501 41.234 188.865 41.234C188.229 41.234 187.641 41.12 187.101 40.892C186.561 40.652 186.093 40.316 185.697 39.884C185.313 39.452 185.013 38.936 184.797 38.336C184.581 37.736 184.473 37.064 184.473 36.32C184.473 35.588 184.581 34.922 184.797 34.322C185.013 33.71 185.313 33.188 185.697 32.756C186.093 32.324 186.561 31.994 187.101 31.766C187.641 31.526 188.229 31.406 188.865 31.406C189.501 31.406 190.089 31.526 190.629 31.766C191.169 31.994 191.631 32.324 192.015 32.756C192.411 33.188 192.717 33.71 192.933 34.322C193.149 34.922 193.257 35.588 193.257 36.32ZM191.511 36.32C191.511 35.264 191.271 34.43 190.791 33.818C190.323 33.194 189.681 32.882 188.865 32.882C188.049 32.882 187.401 33.194 186.921 33.818C186.453 34.43 186.219 35.264 186.219 36.32C186.219 37.376 186.453 38.216 186.921 38.84C187.401 39.452 188.049 39.758 188.865 39.758C189.681 39.758 190.323 39.452 190.791 38.84C191.271 38.216 191.511 37.376 191.511 36.32ZM195.612 31.91C195.996 31.814 196.5 31.712 197.124 31.604C197.76 31.496 198.492 31.442 199.32 31.442C199.92 31.442 200.424 31.526 200.832 31.694C201.24 31.85 201.582 32.084 201.858 32.396C201.942 32.336 202.074 32.252 202.254 32.144C202.434 32.036 202.656 31.934 202.92 31.838C203.184 31.73 203.478 31.64 203.802 31.568C204.126 31.484 204.474 31.442 204.846 31.442C205.566 31.442 206.154 31.55 206.61 31.766C207.066 31.97 207.42 32.264 207.672 32.648C207.936 33.032 208.11 33.488 208.194 34.016C208.29 34.544 208.338 35.12 208.338 35.744V41H206.664V36.104C206.664 35.552 206.634 35.078 206.574 34.682C206.526 34.286 206.424 33.956 206.268 33.692C206.124 33.428 205.92 33.236 205.656 33.116C205.404 32.984 205.074 32.918 204.666 32.918C204.102 32.918 203.634 32.996 203.262 33.152C202.902 33.296 202.656 33.428 202.524 33.548C202.62 33.86 202.692 34.202 202.74 34.574C202.788 34.946 202.812 35.336 202.812 35.744V41H201.138V36.104C201.138 35.552 201.108 35.078 201.048 34.682C200.988 34.286 200.88 33.956 200.724 33.692C200.58 33.428 200.376 33.236 200.112 33.116C199.86 32.984 199.536 32.918 199.14 32.918C198.972 32.918 198.792 32.924 198.6 32.936C198.408 32.948 198.222 32.966 198.042 32.99C197.874 33.002 197.718 33.02 197.574 33.044C197.43 33.068 197.334 33.086 197.286 33.098V41H195.612V31.91Z" fill="#1E212C"/>
<a href="mailto:hello@createx.com">
<rect fill="black" fill-opacity="0" y="3.159" width="157.67" height="20.682"/>
</a>
</g>
</g>
<defs>
<clipPath id="clip0_110290_868">
<rect width="210" height="48" fill="white"/>
</clipPath>
<clipPath id="clip1_110290_868">
<rect width="158" height="48" fill="white" transform="translate(52)"/>
</clipPath>
</defs>
</svg>
